<svg width="100" height="100" viewBox="0 0 100 100" fill="none" xmlns="http://www.w3.org/2000/svg">
  <!-- Antenna -->
  <circle cx="50" cy="7" r="4.5" fill="#FF7043" />
  <rect x="48" y="10" width="4" height="13" rx="2" fill="#263238" />
  <!-- Head -->
  <rect x="15" y="23" width="70" height="62" rx="12" fill="#FF7043" />
  <!-- Ear nubs -->
  <rect x="7" y="40" width="9" height="18" rx="4.5" fill="#FF7043" stroke="#263238" stroke-width="2" />
  <rect x="84" y="40" width="9" height="18" rx="4.5" fill="#FF7043" stroke="#263238" stroke-width="2" />
  <!-- Eye sockets -->
  <rect x="22" y="33" width="24" height="20" rx="5" fill="#263238" />
  <rect x="54" y="33" width="24" height="20" rx="5" fill="#263238" />
  <!-- Eye whites -->
  <rect x="27" y="38" width="14" height="10" rx="2" fill="#FFFFFF" />
  <rect x="59" y="38" width="14" height="10" rx="2" fill="#FFFFFF" />
  <!-- Pupils -->
  <rect x="31" y="40" width="6" height="6" rx="1" fill="#263238" />
  <rect x="63" y="40" width="6" height="6" rx="1" fill="#263238" />
  <!-- Mouth / grid -->
  <rect x="22" y="63" width="56" height="14" rx="4" fill="#263238" />
  <line x1="36" y1="63" x2="36" y2="77" stroke="#FF7043" stroke-width="2" />
  <line x1="50" y1="63" x2="50" y2="77" stroke="#FF7043" stroke-width="2" />
  <line x1="64" y1="63" x2="64" y2="77" stroke="#FF7043" stroke-width="2" />
  <line x1="22" y1="70" x2="78" y2="70" stroke="#FF7043" stroke-width="2" />
</svg>
